<svg width="587" height="587" viewBox="0 0 587 587" fill="none" xmlns="http://www.w3.org/2000/svg">
<g clip-path="url(#clip0_1_540)">
<path d="M294.241 -145.268L297.221 236.538L340.027 -142.864L303.149 237.163L385.312 -135.679L308.979 238.404L429.599 -123.793L314.648 240.249L472.403 -107.334L320.093 242.677L513.254 -86.4839L325.255 245.663L551.707 -61.4704L330.077 249.172L587.338 -32.5678L334.506 253.167L619.758 -0.0927734L338.495 257.604L648.612 35.5989L341.998 262.434L673.583 74.1163L344.978 267.605L694.398 115.037L347.402 273.059L710.829 157.913L349.244 278.737L722.696 202.275L350.484 284.577L729.868 247.636L351.107 290.515L732.268 293.5L351.107 296.485L729.868 339.364L350.484 302.423L722.696 384.725L349.244 308.263L710.829 429.087L347.402 313.941L694.398 471.963L344.978 319.396L673.583 512.884L341.998 324.566L648.612 551.401L338.495 329.396L619.758 587.093L334.506 333.833L587.338 619.568L330.077 337.828L551.707 648.471L325.255 341.338L513.254 673.484L320.093 344.323L472.403 694.334L314.648 346.751L429.599 710.793L308.979 348.596L385.312 722.68L303.149 349.838L340.027 729.864L297.221 350.462L294.241 732.268L291.261 350.462L248.455 729.864L285.333 349.838L203.17 722.68L279.503 348.596L158.884 710.793L273.834 346.751L116.08 694.334L268.389 344.323L75.2279 673.484L263.228 341.338L36.7757 648.471L258.406 337.828L1.14423 619.568L253.976 333.833L-31.276 587.093L249.988 329.396L-60.1297 551.401L246.484 324.566L-85.1009 512.884L243.504 319.396L-105.916 471.963L241.08 313.941L-122.347 429.087L239.238 308.263L-134.213 384.725L237.999 302.423L-141.386 339.364L237.376 296.485L-143.785 293.5L237.376 290.515L-141.386 247.636L237.999 284.577L-134.213 202.275L239.238 278.737L-122.347 157.913L241.08 273.059L-105.916 115.037L243.504 267.605L-85.1009 74.1163L246.484 262.434L-60.1297 35.5989L249.988 257.604L-31.276 -0.0927734L253.976 253.167L1.14423 -32.5678L258.406 249.172L36.7757 -61.4704L263.228 245.663L75.2279 -86.4839L268.389 242.677L116.08 -107.334L273.834 240.249L158.884 -123.793L279.503 238.404L203.17 -135.679L285.333 237.163L248.455 -142.864L291.261 236.538L294.241 -145.268Z" fill="black"/>
</g>
<defs>
<clipPath id="clip0_1_540">
<rect width="587" height="587" fill="white"/>
</clipPath>
</defs>
</svg>
