<svg width="587" height="587" viewBox="0 0 587 587" fill="none" xmlns="http://www.w3.org/2000/svg">
<g clip-path="url(#clip0_1_347)">
<g opacity="0.55" clip-path="url(#clip1_1_347)">
<path d="M-616.163 -13.5961C-556.312 -39.1435 -495.907 -40.5289 -434.948 -17.7524C-373.989 5.02409 -313.584 3.63863 -253.734 -21.9088C-193.883 -47.4562 -133.478 -48.8417 -72.5188 -26.0652C-11.5597 -3.28865 48.8453 -4.67411 108.696 -30.2215C168.547 -55.769 228.952 -57.1544 289.911 -34.3779C350.87 -11.6014 411.275 -12.9868 471.125 -38.5343C530.976 -64.0817 591.381 -65.4671 652.34 -42.6906C713.299 -19.9141 773.704 -21.2996 833.555 -46.847C893.406 -72.3944 953.811 -73.7799 1014.77 -51.0034C1075.73 -28.2269 1136.13 -29.6123 1195.98 -55.1597" stroke="black" stroke-width="1.64426"/>
<path d="M-615.964 24.7487C-556.114 -0.79875 -495.709 -2.18421 -434.75 20.5923C-373.791 43.3688 -313.386 41.9834 -253.535 16.4359C-193.684 -9.11149 -133.279 -10.4969 -72.3202 12.2796C-11.3611 35.0561 49.0439 33.6706 108.895 8.1232C168.745 -17.4242 229.15 -18.8097 290.109 3.96683C351.068 26.7433 411.473 25.3579 471.324 -0.189543C531.175 -25.737 591.58 -27.1224 652.539 -4.34591C713.498 18.4306 773.903 17.0451 833.754 -8.50228C893.604 -34.0497 954.009 -35.4352 1014.97 -12.6587C1075.93 10.1179 1136.33 8.7324 1196.18 -16.815" stroke="black" stroke-width="1.64426"/>
<path d="M-615.591 63.0934C-555.74 37.546 -495.335 36.1605 -434.376 58.937C-373.417 81.7135 -313.012 80.3281 -253.162 54.7807C-193.311 29.2332 -132.906 27.8478 -71.9469 50.6243C-10.9878 73.4008 49.4172 72.0153 109.268 46.4679C169.119 20.9205 229.524 19.535 290.483 42.3116C351.442 65.0881 411.847 63.7026 471.697 38.1552C531.548 12.6078 591.953 11.2223 652.912 33.9988C713.871 56.7753 774.276 55.3899 834.127 29.8424C893.978 4.29502 954.383 2.90957 1015.34 25.6861C1076.3 48.4626 1136.71 47.0771 1196.56 21.5297" stroke="black" stroke-width="1.64426"/>
<path d="M-615.247 101.438C-555.396 75.8905 -494.991 74.505 -434.032 97.2815C-373.073 120.058 -312.668 118.673 -252.817 93.1251C-192.966 67.5777 -132.561 66.1923 -71.6024 88.9688C-10.6433 111.745 49.7616 110.36 109.612 84.8124C169.463 59.265 229.868 57.8795 290.827 80.656C351.786 103.433 412.191 102.047 472.042 76.4997C531.893 50.9522 592.298 49.5668 653.257 72.3433C714.216 95.1198 774.621 93.7344 834.471 68.1869C894.322 42.6395 954.727 41.254 1015.69 64.0306C1076.65 86.8071 1137.05 85.4216 1196.9 59.8742" stroke="black" stroke-width="1.64426"/>
<path d="M-614.875 139.782C-555.024 114.235 -494.619 112.849 -433.66 135.626C-372.701 158.403 -312.296 157.017 -252.445 131.47C-192.595 105.922 -132.19 104.537 -71.2307 127.313C-10.2716 150.09 50.1333 148.704 109.984 123.157C169.835 97.6095 230.24 96.224 291.199 119.001C352.158 141.777 412.563 140.392 472.414 114.844C532.264 89.2967 592.669 87.9113 653.628 110.688C714.587 133.464 774.992 132.079 834.843 106.531C894.694 80.984 955.099 79.5985 1016.06 102.375C1077.02 125.152 1137.42 123.766 1197.27 98.2187" stroke="black" stroke-width="1.64426"/>
<path d="M-614.502 178.127C-554.652 152.58 -494.247 151.194 -433.288 173.971C-372.329 196.747 -311.924 195.362 -252.073 169.814C-192.222 144.267 -131.817 142.881 -70.8582 165.658C-9.89908 188.434 50.5058 187.049 110.357 161.502C170.207 135.954 230.612 134.569 291.571 157.345C352.53 180.122 412.935 178.736 472.786 153.189C532.637 127.641 593.042 126.256 654.001 149.033C714.96 171.809 775.365 170.424 835.216 144.876C895.066 119.329 955.471 117.943 1016.43 140.72C1077.39 163.496 1137.79 162.111 1197.65 136.563" stroke="black" stroke-width="1.64426"/>
<path d="M-614.129 216.472C-554.278 190.924 -493.873 189.539 -432.914 212.315C-371.955 235.092 -311.55 233.706 -251.7 208.159C-191.849 182.611 -131.444 181.226 -70.4848 204.002C-9.52573 226.779 50.8792 225.394 110.73 199.846C170.581 174.299 230.986 172.913 291.945 195.69C352.904 218.466 413.309 217.081 473.159 191.533C533.01 165.986 593.415 164.6 654.374 187.377C715.333 210.153 775.738 208.768 835.589 183.221C895.44 157.673 955.845 156.288 1016.8 179.064C1077.76 201.841 1138.17 200.455 1198.02 174.908" stroke="black" stroke-width="1.64426"/>
<path d="M-613.785 254.816C-553.935 229.269 -493.53 227.883 -432.571 250.66C-371.612 273.436 -311.207 272.051 -251.356 246.503C-191.505 220.956 -131.1 219.57 -70.1412 242.347C-9.18209 265.123 51.2228 263.738 111.074 238.191C170.924 212.643 231.329 211.258 292.288 234.034C353.247 256.811 413.652 255.425 473.503 229.878C533.354 204.33 593.759 202.945 654.718 225.721C715.677 248.498 776.082 247.113 835.933 221.565C895.783 196.018 956.188 194.632 1017.15 217.409C1078.11 240.185 1138.51 238.8 1198.36 213.252" stroke="black" stroke-width="1.64426"/>
<path d="M-613.499 293.161C-553.648 267.614 -493.243 266.228 -432.284 289.005C-371.325 311.781 -310.92 310.396 -251.069 284.848C-191.219 259.301 -130.814 257.915 -69.8546 280.692C-8.89548 303.468 51.5094 302.083 111.36 276.536C171.211 250.988 231.616 249.603 292.575 272.379C353.534 295.156 413.939 293.77 473.79 268.223C533.64 242.675 594.045 241.29 655.004 264.066C715.964 286.843 776.368 285.457 836.219 259.91C896.07 234.363 956.475 232.977 1017.43 255.754C1078.39 278.53 1138.8 277.145 1198.65 251.597" stroke="black" stroke-width="1.64426"/>
<path d="M-613.097 331.506C-553.246 305.958 -492.841 304.573 -431.882 327.349C-370.923 350.126 -310.518 348.74 -250.667 323.193C-190.816 297.645 -130.411 296.26 -69.4524 319.036C-8.49326 341.813 51.9117 340.427 111.762 314.88C171.613 289.333 232.018 287.947 292.977 310.724C353.936 333.5 414.341 332.115 474.192 306.567C534.043 281.02 594.448 279.634 655.407 302.411C716.366 325.187 776.771 323.802 836.621 298.255C896.472 272.707 956.877 271.322 1017.84 294.098C1078.8 316.875 1139.2 315.489 1199.05 289.942" stroke="black" stroke-width="1.64426"/>
<path d="M-612.726 369.85C-552.875 344.303 -492.47 342.917 -431.511 365.694C-370.552 388.47 -310.147 387.085 -250.296 361.537C-190.445 335.99 -130.041 334.604 -69.0814 357.381C-8.12234 380.157 52.2826 378.772 112.133 353.225C171.984 327.677 232.389 326.292 293.348 349.068C354.307 371.845 414.712 370.459 474.563 344.912C534.414 319.364 594.818 317.979 655.778 340.755C716.737 363.532 777.142 362.146 836.992 336.599C896.843 311.052 957.248 309.666 1018.21 332.443C1079.17 355.219 1139.57 353.834 1199.42 328.286" stroke="black" stroke-width="1.64426"/>
<path d="M-612.409 408.195C-552.559 382.647 -492.154 381.262 -431.195 404.038C-370.236 426.815 -309.831 425.429 -249.98 399.882C-190.129 374.335 -129.724 372.949 -68.7651 395.726C-7.80601 418.502 52.5989 417.117 112.45 391.569C172.3 366.022 232.705 364.636 293.664 387.413C354.624 410.189 415.028 408.804 474.879 383.257C534.73 357.709 595.135 356.324 656.094 379.1C717.053 401.877 777.458 400.491 837.309 374.944C897.159 349.396 957.564 348.011 1018.52 370.787C1079.48 393.564 1139.89 392.178 1199.74 366.631" stroke="black" stroke-width="1.64426"/>
<path d="M-612.007 446.539C-552.156 420.992 -491.751 419.606 -430.792 442.383C-369.833 465.159 -309.428 463.774 -249.578 438.226C-189.727 412.679 -129.322 411.294 -68.3629 434.07C-7.40378 456.847 53.0011 455.461 112.852 429.914C172.703 404.366 233.108 402.981 294.067 425.757C355.026 448.534 415.431 447.148 475.281 421.601C535.132 396.054 595.537 394.668 656.496 417.445C717.455 440.221 777.86 438.836 837.711 413.288C897.562 387.741 957.967 386.355 1018.93 409.132C1079.88 431.908 1140.29 430.523 1200.14 404.976" stroke="black" stroke-width="1.64426"/>
<path d="M-611.692 484.884C-551.842 459.337 -491.437 457.951 -430.478 480.728C-369.519 503.504 -309.114 502.119 -249.263 476.571C-189.412 451.024 -129.007 449.638 -68.0482 472.415C-7.08907 495.191 53.3158 493.806 113.167 468.258C173.017 442.711 233.422 441.326 294.381 464.102C355.34 486.879 415.745 485.493 475.596 459.946C535.447 434.398 595.852 433.013 656.811 455.789C717.77 478.566 778.175 477.18 838.026 451.633C897.876 426.086 958.281 424.7 1019.24 447.477C1080.2 470.253 1140.6 468.868 1200.46 443.32" stroke="black" stroke-width="1.64426"/>
<path d="M-611.35 523.229C-551.499 497.681 -491.094 496.296 -430.135 519.072C-369.176 541.849 -308.771 540.463 -248.92 514.916C-189.069 489.368 -128.664 487.983 -67.7054 510.76C-6.74626 533.536 53.6587 532.151 113.509 506.603C173.36 481.056 233.765 479.67 294.724 502.447C355.683 525.223 416.088 523.838 475.939 498.29C535.79 472.743 596.195 471.358 657.154 494.134C718.113 516.911 778.518 515.525 838.368 489.978C898.219 464.43 958.624 463.045 1019.58 485.821C1080.54 508.598 1140.95 507.212 1200.8 481.665" stroke="black" stroke-width="1.64426"/>
<path d="M-610.948 561.573C-551.097 536.026 -490.693 534.64 -429.733 557.417C-368.774 580.193 -308.369 578.808 -248.519 553.26C-188.668 527.713 -128.263 526.328 -67.3039 549.104C-6.34482 571.881 54.0601 570.495 113.911 544.948C173.762 519.4 234.166 518.015 295.126 540.791C356.085 563.568 416.49 562.182 476.34 536.635C536.191 511.087 596.596 509.702 657.555 532.479C718.514 555.255 778.919 553.87 838.77 528.322C898.621 502.775 959.026 501.389 1019.98 524.166C1080.94 546.942 1141.35 545.557 1201.2 520.009" stroke="black" stroke-width="1.64426"/>
<path d="M-610.575 599.918C-550.724 574.37 -490.319 572.985 -429.36 595.761C-368.401 618.538 -307.996 617.152 -248.145 591.605C-188.295 566.057 -127.89 564.672 -66.9305 587.449C-5.97145 610.225 54.4335 608.84 114.284 583.292C174.135 557.745 234.54 556.359 295.499 579.136C356.458 601.912 416.863 600.527 476.714 574.979C536.564 549.432 596.969 548.047 657.928 570.823C718.888 593.6 779.292 592.214 839.143 566.667C898.994 541.119 959.399 539.734 1020.36 562.51C1081.32 585.287 1141.72 583.901 1201.57 558.354" stroke="black" stroke-width="1.64426"/>
<path d="M-610.575 638.262C-550.724 612.715 -490.319 611.329 -429.36 634.106C-368.401 656.882 -307.996 655.497 -248.145 629.95C-188.295 604.402 -127.89 603.017 -66.9305 625.793C-5.97145 648.57 54.4335 647.184 114.284 621.637C174.135 596.089 234.54 594.704 295.499 617.48C356.458 640.257 416.863 638.872 476.714 613.324C536.564 587.777 596.969 586.391 657.928 609.168C718.888 631.944 779.292 630.559 839.143 605.011C898.994 579.464 959.399 578.079 1020.36 600.855C1081.32 623.632 1141.72 622.246 1201.57 596.699" stroke="black" stroke-width="1.64426"/>
</g>
</g>
<defs>
<clipPath id="clip0_1_347">
<rect width="587" height="587" fill="white"/>
</clipPath>
<clipPath id="clip1_1_347">
<rect width="587" height="587" fill="white" transform="translate(0 -0.000244141)"/>
</clipPath>
</defs>
</svg>
