<svg width="587" height="587" viewBox="0 0 587 587" fill="none" xmlns="http://www.w3.org/2000/svg">
<g clip-path="url(#clip0_1_197)">
<path d="M-29.35 -733.75L1218.03 513.625" stroke="black"/>
<path d="M-29.35 -704.4L1218.03 542.975" stroke="black"/>
<path d="M-29.35 -675.05L1218.03 579.663" stroke="black"/>
<path d="M-29.35 -638.363L1218.03 609.013" stroke="black"/>
<path d="M-29.35 -609.013L1218.03 645.7" stroke="black"/>
<path d="M-29.35 -572.325L1218.03 682.388" stroke="black"/>
<path d="M-29.35 -535.638L1218.03 711.738" stroke="black"/>
<path d="M-29.35 -506.288L1218.03 748.425" stroke="black"/>
<path d="M-29.35 -469.6L1218.03 785.113" stroke="black"/>
<path d="M-29.35 -432.913L1218.03 814.463" stroke="black"/>
<path d="M-29.35 -403.562L1218.03 851.15" stroke="black"/>
<path d="M-29.35 -366.875L1218.03 887.838" stroke="black"/>
<path d="M-29.35 -330.188L1218.03 917.188" stroke="black"/>
<path d="M-29.35 -300.838L1218.03 953.875" stroke="black"/>
<path d="M-29.35 -264.15L1218.03 983.225" stroke="black"/>
<path d="M-29.35 -234.8L1218.03 1012.58" stroke="black"/>
<path d="M-29.35 -205.45L1218.03 1049.26" stroke="black"/>
<path d="M-29.35 -168.763L1218.03 1078.61" stroke="black"/>
<path d="M-29.35 -139.413L1218.03 1107.96" stroke="black"/>
<path d="M-29.35 -110.062L1218.03 1144.65" stroke="black"/>
<path d="M-29.35 -73.375L1218.03 1174" stroke="black"/>
<path d="M-29.35 -44.025L1218.03 1210.69" stroke="black"/>
<path d="M-29.35 -7.33752L1218.03 1247.38" stroke="black"/>
<path d="M-29.35 29.35L1218.03 1276.73" stroke="black"/>
<path d="M-29.35 58.7L1218.03 1313.41" stroke="black"/>
<path d="M-29.35 95.3875L1218.03 1350.1" stroke="black"/>
<path d="M-29.35 132.075L1218.03 1379.45" stroke="black"/>
<path d="M-29.35 161.425L1218.03 1416.14" stroke="black"/>
<path d="M-29.35 198.113L1218.03 1445.49" stroke="black"/>
<path d="M-29.35 227.463L1218.03 1474.84" stroke="black"/>
<path d="M-29.35 256.812L1218.03 1511.53" stroke="black"/>
<path d="M-29.35 293.5L1218.03 1540.88" stroke="black"/>
<path d="M-29.35 322.85L1218.03 1570.23" stroke="black"/>
<path d="M-29.35 352.2L1218.03 1606.91" stroke="black"/>
<path d="M-29.35 388.887L1218.03 1636.26" stroke="black"/>
<path d="M-29.35 418.238L1218.03 1665.61" stroke="black"/>
<path d="M-29.35 447.588L1218.03 1702.3" stroke="black"/>
<path d="M-29.35 484.275L1218.03 1731.65" stroke="black"/>
<path d="M-29.35 513.625L1218.03 1768.34" stroke="black"/>
<path d="M-29.35 550.312L1218.03 1805.03" stroke="black"/>
</g>
<defs>
<clipPath id="clip0_1_197">
<rect width="587" height="587" fill="white"/>
</clipPath>
</defs>
</svg>
